# xmcd
#
# Track frame offsets: 
#        150
#        12746
#        29589
#        47354
#        65635
#        81793
#        96751
#        113426
#        127674
#        146078
#        160161
#        178876
#        195808
#        213163
#
# Disc length: 3105 seconds
#
# Revision: 4
# Processed by: cddbd v1.5.2PL0 Copyright (c) Steve Scherf et al.
# Submitted via: ExactAudioCopy v0.95b4
#
DISCID=b40c1f0e
DTITLE=Various Artist - Hot Hits Country Vol. 77
DYEAR=1998
DGENRE=Country
TTITLE0=Randy Travis - Out Of My Bones
TTITLE1=Mark Chesnutt - I Might Even Quit Lovin You
TTITLE2=Sammy Kershaw - Matches
TTITLE3=Kenny Chesney - That's Why I'm Here
TTITLE4=Lila McCann - Almost Over You
TTITLE5=Mark Wills - I Do (Cherish You)
TTITLE6=Ty Herndon - A Man Holdin On
TTITLE7=Trace Adkins - Lonely Won't Leave Me Alone
TTITLE8=Keith Harling - Papa Bear
TTITLE9=Shane Stockton - What If I'm Right
TTITLE10=Anita Cochran - Will You Be There
TTITLE11=Kevin Sharp - Love Is All That Really Matters
TTITLE12=Chely Wright - I Already Do
TTITLE13=Sammy Kershaw w - Terri Clark
EXTD=
EXTT0=
EXTT1=
EXTT2=
EXTT3=
EXTT4=
EXTT5=
EXTT6=
EXTT7=
EXTT8=
EXTT9=
EXTT10=
EXTT11=
EXTT12=
EXTT13=
PLAYORDER=
